 http://www.imdb.com/title/tt1433108/


Encoded for iPad, iPod touch(new)and iPhone4

Source 1080p Bluray

ID                               : 1
Format                           : AVC
Format/Info                      : Advanced Video Codec
Format profile                   : Main@L3.0
Format settings, CABAC           : Yes
Format settings, ReFrames        : 4 frames
Codec ID                         : avc1
Codec ID/Info                    : Advanced Video Coding
Duration                         : 1h 37mn
Bit rate mode                    : Variable
Bit rate                         : 600 Kbps
Width                            : 960 pixels
Height                           : 400 pixels
Display aspect ratio             : 2.40:1
Frame rate mode                  : Variable
Frame rate                       : 23.976 fps
Minimum frame rate               : 23.419 fps
Maximum frame rate               : 24.390 fps
Color space                      : YUV
Chroma subsampling               : 4:2:0
Bit depth                        : 8 bits
Scan type                        : Progressive
Bits/(Pixel*Frame)               : 0.065
Stream size                      : 420 MiB (82%)
Writing library                  : x264 core 114

ID                               : 2
Format                           : AAC
Format/Info                      : Advanced Audio Codec
Format version                   : Version 4
Format profile                   : LC
Format settings, SBR             : No
Codec ID                         : 40
Duration                         : 1h 37mn
Bit rate mode                    : Variable
Bit rate                         : 128 Kbps
Maximum bit rate                 : 226 Kbps
Channel(s)                       : 2 channels
Channel positions                : Front: L R
Sampling rate                    : 48.0 KHz
Stream size                      : 89.5 MiB (17%)
Language                         : English
 
http://img163.imageshack.us/img163/4253/vlcsnap2011021620h49m37.png
 
http://img291.imageshack.us/img291/9686/vlcsnap2011021620h49m42.png
 
http://img233.imageshack.us/img233/2558/vlcsnap2011021620h49m48.png
 
http://img510.imageshack.us/img510/4550/vlcsnap2011021620h50m01.png
 
http://img254.imageshack.us/img254/2702/vlcsnap2011021620h50m10.png






